<svg width="74" height="67" viewBox="0 0 74 67" fill="none" xmlns="http://www.w3.org/2000/svg">
<mask id="mask0_427_79" style="mask-type:alpha" maskUnits="userSpaceOnUse" x="9" y="8" width="56" height="51">
<path d="M9.70801 16.5862C9.70801 12.8149 9.70801 10.9293 10.8796 9.75775C12.0512 8.58618 13.9368 8.58618 17.708 8.58618H56.5854C60.3566 8.58618 62.2422 8.58618 63.4138 9.75775C64.5854 10.9293 64.5854 12.8149 64.5854 16.5862V50.2413C64.5854 54.0126 64.5854 55.8982 63.4138 57.0698C62.2422 58.2414 60.3566 58.2414 56.5854 58.2414H17.708C13.9368 58.2414 12.0512 58.2414 10.8796 57.0698C9.70801 55.8982 9.70801 54.0126 9.70801 50.2414V16.5862Z" fill="black"/>
</mask>
<g mask="url(#mask0_427_79)">
<path d="M41.3649 42.5779L13.6784 15.0209C13.3471 14.6912 13.1815 14.5263 12.9896 14.4066C12.801 14.289 12.5942 14.2036 12.3775 14.1539C12.1571 14.1034 11.9234 14.1034 11.456 14.1034C8.84471 14.1034 7.53908 14.1034 6.62322 13.5859C5.73062 13.0815 5.06576 12.2537 4.76592 11.2732C4.45827 10.2673 4.74005 8.99242 5.30363 6.44271L6.79683 -0.312837C7.46154 -3.32011 7.79389 -4.82374 8.8912 -5.70499C9.98851 -6.58624 11.5284 -6.58624 14.6083 -6.58624H60.9284C64.7985 -6.58624 66.7335 -6.58624 67.9116 -5.37432C69.0896 -4.1624 69.0348 -2.22815 68.9252 1.64037L67.634 47.2069L53.0216 36.1887C51.3092 34.8975 50.453 34.2519 49.5606 34.442C48.6682 34.6322 48.1496 35.5707 47.1123 37.4478L44.5263 42.1277C43.9382 43.192 43.6442 43.7241 43.1509 43.7943C42.6576 43.8646 42.2267 43.4357 41.3649 42.5779Z" stroke="#004D40" stroke-width="2" stroke-linecap="round"/>
</g>
<path d="M9.70801 36.1724V16.5862C9.70801 12.8149 9.70801 10.9293 10.8796 9.75775C12.0512 8.58618 13.9368 8.58618 17.708 8.58618H56.5854C60.3566 8.58618 62.2422 8.58618 63.4138 9.75775C64.5854 10.9293 64.5854 12.8149 64.5854 16.5862V50.2413C64.5854 54.0126 64.5854 55.8982 63.4138 57.0698C62.2422 58.2414 60.3566 58.2414 56.5854 58.2414H37.1467" stroke="#004D40" stroke-width="2"/>
<ellipse cx="50.8661" cy="21" rx="4.57311" ry="4.13793" fill="#004D40"/>
<path d="M18.5391 41.4043L18.5391 57.956" stroke="#004D40" stroke-width="2" stroke-linecap="square" stroke-linejoin="round"/>
<path d="M9.39307 49.6801H27.6855" stroke="#004D40" stroke-width="2" stroke-linecap="square" stroke-linejoin="round"/>
</svg>
