<svg width="32" height="32" viewBox="0 0 32 32" fill="none" xmlns="http://www.w3.org/2000/svg">
<path d="M29.708 2.29238C28.3384 0.922795 26.5175 0.16748 24.5811 0.16748C22.6446 0.16748 20.8239 0.922795 19.4543 2.29238L2.77698 18.9696C2.0724 19.6741 1.61321 20.5656 1.45013 21.5473L0.199332 29.049C0.0726658 29.809 0.322865 30.5897 0.865948 31.1327C1.3172 31.584 1.9299 31.8326 2.55848 31.8326C2.6899 31.8326 2.81971 31.8215 2.95113 31.7994L10.453 30.5485C11.4347 30.3854 12.3261 29.9262 13.0307 29.2216L29.708 12.5444C31.0775 11.1748 31.8328 9.35237 31.8328 7.41753C31.8328 5.48111 31.0775 3.66196 29.708 2.29238ZM10.7918 26.986C10.5575 27.2203 10.2598 27.374 9.93368 27.4278L3.50216 28.4997L4.57408 22.0682C4.62792 21.742 4.78149 21.4444 5.01582 21.21L17.5337 8.6922L23.3097 14.4681L10.7918 26.986ZM27.4691 10.3072L25.5485 12.2276L19.7725 6.45172L21.6931 4.53112C22.4642 3.76003 23.4917 3.33415 24.5811 3.33415C25.672 3.33415 26.698 3.76003 27.4691 4.53112C28.2402 5.3022 28.6661 6.32816 28.6661 7.41908C28.6661 8.50999 28.2402 9.53615 27.4691 10.3072Z" fill="#41416E"/>
</svg>
